:SAMPLES-PER-SECOND 30
:FULLY-SPECIFIED
:DEGREES
967
root  47.2838 36.8979 45.1267 -173.113 -20.4848 -177.355
RightUpLeg  -28.9588 -24.65 10.0625
RightLeg  46.3353 -11.0642 -12.47
RightFoot  -22.7077 0.150876 3.02928
RightToes  5.82063e-011 0 -3.6325e-017
Spine  63.0367 -4.5658 8.07634
Spine1  15.9685 3.09916 -8.26762
HEad  -31.1627 -4.19316 -1.14947
LeftShoulder1  3.78697 -20.5869 -8.17275
LeftArm  -97.5126 -83.4523 34.1504
LeftForeArm  3.13186 -7.11929 -0.455029
LeftHand  -0.244104 0.0205437 5.32207
RightShoulder  2.74821 14.0942 8.13912
RightArm  -75.4781 65.0055 -15.5774
RightForeArm  -47.9733 0.828606 0.616263
RightHand  -0.708699 4.08455 -8.9382
LeftUpLeg  -35.5415 11.9198 -5.70509
LeftLeg  3.80288 29.6354 -8.29591
LeftFoot  11.4188 -3.55802 17.1756
LeftToes  1.45487e-011 -6.19069e-011 1.65092e-011
968
root  47.3114 36.7457 46.0102 -173.46 -18.8699 -177.109
RightUpLeg  -30.6965 -23.6951 10.4041
RightLeg  47.1724 -10.6762 -12.4073
RightFoot  -21.8921 0.0281178 1.91526
RightToes  5.82063e-011 0 -3.6325e-017
Spine  62.8354 -4.4676 8.50865
Spine1  16.1158 3.17964 -7.83503
HEad  -31.7966 -4.92096 -0.430791
LeftShoulder1  3.74757 -20.7034 -7.90563
LeftArm  -100.505 -82.8248 37.2388
LeftForeArm  2.67992 -6.55843 -0.0904455
LeftHand  -0.244104 0.0205437 5.32207
RightShoulder  2.60543 13.7918 7.5232
RightArm  -76.6695 65.3814 -16.6992
RightForeArm  -48.5846 1.27334 0.708469
RightHand  -0.753061 3.95403 -9.60237
LeftUpLeg  -37.4754 15.5311 -7.55753
LeftLeg  5.33869 22.6456 -7.39485
LeftFoot  14.9522 -3.65276 15.209
LeftToes  1.45487e-011 -6.19069e-011 1.65092e-011
969
root  47.3404 36.6681 46.8097 -173.409 -17.8648 -177.113
RightUpLeg  -32.2259 -23.4116 10.6083
RightLeg  47.1739 -10.0026 -11.6819
RightFoot  -21.3126 -0.0478993 1.10761
RightToes  5.82063e-011 0 -3.6325e-017
Spine  62.776 -4.55062 8.94719
Spine1  16.2081 2.96542 -7.2108
HEad  -32.6541 -5.39714 0.618484
LeftShoulder1  3.63711 -20.633 -7.446
LeftArm  -103.128 -82.4602 39.7323
LeftForeArm  2.08352 -6.13072 0.218157
LeftHand  -0.244104 0.0205437 5.32207
RightShoulder  2.5451 13.6422 7.27663
RightArm  -77.7074 65.4825 -17.7408
RightForeArm  -48.4779 1.78429 0.769548
RightHand  -0.781181 3.94086 -9.96298
LeftUpLeg  -41.6847 22.0182 -13.0211
LeftLeg  8.72618 7.97547 -5.60525
LeftFoot  19.0076 -2.24508 7.90277
LeftToes  1.45487e-011 -6.19069e-011 1.65092e-011
970
root  47.343 36.6696 47.5084 -173.003 -16.827 -177.152
RightUpLeg  -33.5717 -22.7718 10.8302
RightLeg  46.2598 -9.63863 -10.9385
RightFoot  -20.5399 -0.148427 -0.128042
RightToes  5.82063e-011 0 -3.6325e-017
Spine  62.8726 -4.61313 9.3675
Spine1  15.8658 2.7582 -6.89429
HEad  -33.6302 -5.46925 1.76559
LeftShoulder1  3.54037 -20.4402 -7.13291
LeftArm  -105.559 -82.2466 42.4131
LeftForeArm  1.38699 -6.00722 0.229473
LeftHand  -0.244104 0.0205437 5.32207
RightShoulder  2.55246 13.5335 7.43165
RightArm  -78.6626 65.4982 -18.5018
RightForeArm  -47.7998 2.32729 0.765459
RightHand  -0.82494 4.14877 -10.2858
LeftUpLeg  -47.8745 28.5323 -20.0315
LeftLeg  13.2703 -5.90718 -3.45538
LeftFoot  21.6456 0.373499 -1.79115
LeftToes  1.45487e-011 -6.19069e-011 1.65092e-011
971
root  47.2726 36.8122 48.1606 -172.478 -15.5155 -177.369
RightUpLeg  -34.6401 -21.6507 10.7115
RightLeg  44.8838 -9.6657 -10.4678
RightFoot  -18.7122 -0.202225 -1.17216
RightToes  5.82063e-011 0 -3.6325e-017
Spine  63.2465 -4.67819 9.4955
Spine1  15.5364 2.73609 -7.05003
HEad  -34.687 -5.50914 2.69927
LeftShoulder1  3.52975 -20.3691 -7.1329
LeftArm  -107.569 -81.9693 44.8625
LeftForeArm  0.954059 -6.35151 0.0935974
LeftHand  -0.244104 0.0205437 5.32207
RightShoulder  2.56581 13.4568 7.59606
RightArm  -79.6543 65.3771 -19.3798
RightForeArm  -47.605 2.99618 0.792787
RightHand  -0.919657 4.54775 -10.9921
LeftUpLeg  -50.852 28.5275 -19.8681
LeftLeg  18.2826 -6.97 -1.93791
LeftFoot  20.4504 1.90255 -7.13904
LeftToes  1.45487e-011 -6.19069e-011 1.65092e-011
972
root  47.1162 37.1292 48.7968 -172.003 -14.3033 -177.946
RightUpLeg  -35.0203 -20.772 9.96393
RightLeg  42.6995 -9.75881 -9.81215
RightFoot  -16.282 -0.187927 -1.80405
RightToes  5.82063e-011 0 -3.6325e-017
Spine  63.8525 -4.88601 9.23653
Spine1  15.5447 2.6761 -7.32111
HEad  -35.749 -5.76177 3.56236
LeftShoulder1  3.58876 -20.4786 -7.33094
LeftArm  -108.813 -81.667 46.1543
LeftForeArm  0.981545 -6.9315 0.0959576
LeftHand  -0.244104 0.0205437 5.32207
RightShoulder  2.58097 13.5134 7.63914
RightArm  -80.4658 65.0583 -20.5583
RightForeArm  -48.1154 3.73014 0.946155
RightHand  -1.0364 4.96947 -11.8687
LeftUpLeg  -49.9909 24.3683 -14.3732
LeftLeg  23.5783 -1.42638 -0.352206
LeftFoot  15.6574 1.27305 -5.59049
LeftToes  1.45487e-011 -6.19069e-011 1.65092e-011
973
root  46.8887 37.5062 49.3382 -171.313 -13.2856 -178.672
RightUpLeg  -34.9956 -20.1828 8.96196
RightLeg  39.6982 -9.68868 -8.79898
RightFoot  -14.1787 -0.156861 -2.47417
RightToes  5.82063e-011 0 -3.6325e-017
Spine  64.2941 -5.03697 8.90286
Spine1  15.3604 2.40749 -7.24865
HEad  -36.5635 -6.14825 4.54059
LeftShoulder1  3.68629 -20.7011 -7.62497
LeftArm  -108.862 -81.5323 45.8903
LeftForeArm  1.18754 -7.34264 0.21288
LeftHand  -0.244104 0.0205437 5.32207
RightShoulder  2.64812 13.5925 7.99998
RightArm  -80.7744 64.8135 -21.6849
RightForeArm  -48.3795 4.28113 1.23226
RightHand  -1.11311 5.28052 -12.3666
LeftUpLeg  -48.6883 19.6528 -9.73997
LeftLeg  28.7533 2.19383 1.63296
LeftFoot  10.5426 0.0562442 -0.651377
LeftToes  1.45487e-011 -6.19069e-011 1.65092e-011
974
root  46.6144 37.8221 49.7408 -170.208 -12.0023 -179.187
RightUpLeg  -35.1952 -19.1981 8.19456
RightLeg  36.6116 -9.47815 -7.75199
RightFoot  -12.379 -0.111041 -2.9453
RightToes  5.82063e-011 0 -3.6325e-017
Spine  64.262 -4.84612 8.65515
Spine1  14.7299 2.1996 -7.00613
HEad  -36.852 -6.60453 5.36386
LeftShoulder1  3.76438 -20.89 -7.84867
LeftArm  -107.167 -81.5594 43.9679
LeftForeArm  1.13902 -7.59486 0.232153
LeftHand  -0.244104 0.0205437 5.32207
RightShoulder  2.76584 13.5314 8.83649
RightArm  -80.6979 64.9384 -22.3648
RightForeArm  -47.9434 4.50291 1.53578
RightHand  -1.14315 5.50196 -12.443
LeftUpLeg  -47.3589 15.7512 -6.137
LeftLeg  33.1984 3.91234 3.08847
LeftFoot  7.4813 -0.402783 2.10832
LeftToes  1.45487e-011 -6.19069e-011 1.65092e-011
